# xmcd
#
# Track frame offsets: 
#        150
#        13275
#        28832
#        47095
#        62715
#        82482
#        101007
#        111472
#        123787
#        138705
#        153505
#        177572
#        195052
#        214090
#        226437
#        251980
#        267240
#        281940
#        315405
#        332450
#
# Disc length: 4667 seconds
#
# Revision: 8
# Processed by: cddbd v1.5.2PL0 Copyright (c) Steve Scherf et al.
# Submitted via: ExactAudioCopy v1.0b3
#
DISCID=32123914
DTITLE=Various Artist - Nothin' But The Blues - Disc 4
DYEAR=1998
DGENRE=Blues
TTITLE0=Muddy Waters - Hoochie Coochie Man
TTITLE1=Bo Diddley - Road Runner
TTITLE2=Koko Taylor - Wang Dang Doodle
TTITLE3=Sunnlyand Slim - I Had It So Hard
TTITLE4=Fenton Robinson - You Don't Know What Love Is
TTITLE5=Byther Smith - Come On In This House
TTITLE6=The Paul Delay Band - Harpoon Man
TTITLE7=Buddy Guy - You Sure Can't Do
TTITLE8=Tommy Tucker - Drunk
TTITLE9=Billy Boy Arnold with Tony McPhee - Don't Stay Out All Night
TTITLE10=Jimmy Johnson - When My First Wife Left Me
TTITLE11=Colin "Barrelhouse" Banagan - Drivin' The Boogie
TTITLE12=Carey Bell and Willie Williams - You Went Away Baby
TTITLE13=Muddy Waters - Trouble No More
TTITLE14=The Mighty Houserockers Featuring Les Wilson - Play The Blues
TTITLE14=For You
TTITLE15=King Curtis - Soul Groove (Part 2)
TTITLE16=King Biscuit Boy with The Ronnie Hawkins Band - Done Everythi
TTITLE16=ng I Can
TTITLE17=U.P. Wilson - Hold On Baby
TTITLE18=John Lee Hooker - Goin' Mad Blues
TTITLE19=Earl Hooker - Bertha
EXTD=YEAR: 1998
EXTT0=
EXTT1=
EXTT2=
EXTT3=
EXTT4=
EXTT5=
EXTT6=
EXTT7=
EXTT8=
EXTT9=
EXTT10=
EXTT11=
EXTT12=
EXTT13=
EXTT14=
EXTT15=
EXTT16=
EXTT17=
EXTT18=
EXTT19=
PLAYORDER=
